C:/Program Files/Krita (x64)/bin/ffmpeg.exe -hide_banner -y -y -r 24 -start_number 0 -start_number_range 1 -i H://frame%04d.png -c:v libopenh264 -b:v 5000k H:/bubble paint.mp4
=====================================================
Input #0, image2, from 'H://frame%04d.png':
  Duration: 00:00:09.68, start: 0.000000, bitrate: N/A
  Stream #0:0: Video: png, rgba(pc), 1920x1078 [SAR 9448:9448 DAR 960:539], 25 fps, 25 tbr, 25 tbn, 25 tbc
Stream mapping:
  Stream #0:0 -> #0:0 (png (native) -> h264 (libopenh264))
Press [q] to stop, [?] for help
[libopenh264 @ 000001b248879180] Slice count will be set automatically
[libopenh264 @ 000001b248879180] [OpenH264] this = 0x000001B247EA62C0, Warning:SliceArgumentValidationFixedSliceMode(), unsupported setting with Resolution and uiSliceNum combination under RC on! So uiSliceNum is changed to 16!
[libopenh264 @ 000001b248879180] [OpenH264] this = 0x000001B247EA62C0, Warning:bEnableFrameSkip = 0,bitrate can't be controlled for RC_QUALITY_MODE,RC_BITRATE_MODE and RC_TIMESTAMP_MODE without enabling skip frame.
Output #0, mp4, to 'H:/bubble paint.mp4':
  Metadata:
    encoder         : Lavf58.76.100
  Stream #0:0: Video: h264 (avc1 / 0x31637661), yuv420p(tv, progressive), 1920x1078 [SAR 1:1 DAR 960:539], q=2-31, 5000 kb/s, 24 fps, 12288 tbn
    Metadata:
      encoder         : Lavc58.134.100 libopenh264
    Side data:
      cpb: bitrate max/min/avg: 5000000/0/5000000 buffer size: 0 vbv_delay: N/A
frame=    1 fps=0.0 q=-0.0 size=       0kB time=00:00:00.00 bitrate=4740.7kbits/s speed=0.00177x    frame=   31 fps=0.0 q=-0.0 size=     512kB time=00:00:01.25 bitrate=3355.5kbits/s speed=2.23x    frame=   67 fps= 63 q=-0.0 size=    1536kB time=00:00:02.75 bitrate=4575.6kbits/s speed=2.58x    frame=  104 fps= 66 q=-0.0 size=    2304kB time=00:00:04.29 bitrate=4397.9kbits/s speed=2.73x    frame=  142 fps= 68 q=-0.0 size=    3328kB time=00:00:05.87 bitrate=4640.5kbits/s speed=2.83x    frame=  176 fps= 68 q=-0.0 size=    4096kB time=00:00:07.29 bitrate=4601.8kbits/s speed=2.82x    frame=  197 fps= 64 q=-0.0 size=    4608kB time=00:00:08.16 bitrate=4622.3kbits/s speed=2.64x    frame=  217 fps= 60 q=-0.0 size=    5120kB time=00:00:09.00 bitrate=4660.3kbits/s speed= 2.5x    frame=  242 fps= 60 q=-0.0 Lsize=    5954kB time=00:00:10.04 bitrate=4856.9kbits/s speed=2.48x    
video:5952kB audio:0kB subtitle:0kB other streams:0kB global headers:0kB muxing overhead: 0.031060%
